<svg width="1520" height="170" viewBox="0 0 1520 170" fill="none" xmlns="http://www.w3.org/2000/svg">
<g clip-path="url(#clip0_754_604)">
<path d="M251.44 112.48C253.093 113.067 254.36 113.96 255.24 115.16C256.12 116.36 256.56 117.787 256.56 119.44C256.56 121.067 256.133 122.493 255.28 123.72C254.427 124.92 253.2 125.853 251.6 126.52C250.027 127.16 248.2 127.48 246.12 127.48C243 127.48 240.44 126.747 238.44 125.28C236.467 123.813 235.173 121.68 234.56 118.88L240.36 118.16C241.16 120.773 242.987 122.08 245.84 122.08C247.253 122.08 248.36 121.773 249.16 121.16C249.96 120.547 250.36 119.707 250.36 118.64C250.36 117.627 249.96 116.813 249.16 116.2C248.387 115.56 247.333 115.24 246 115.24H242.64V110.24H245.88C247.053 110.24 247.987 109.96 248.68 109.4C249.4 108.813 249.76 108.027 249.76 107.04C249.76 106.053 249.4 105.267 248.68 104.68C247.96 104.093 247 103.8 245.8 103.8C244.52 103.8 243.44 104.107 242.56 104.72C241.707 105.333 241.093 106.227 240.72 107.4L235.16 106.72C235.773 104.133 237.027 102.12 238.92 100.68C240.84 99.24 243.213 98.52 246.04 98.52C247.907 98.52 249.573 98.84 251.04 99.48C252.533 100.12 253.693 101.013 254.52 102.16C255.373 103.307 255.8 104.627 255.8 106.12C255.8 107.533 255.413 108.8 254.64 109.92C253.893 111.013 252.827 111.867 251.44 112.48ZM288.21 122.04H291.73V132.6H286.65V127H272.21V132.6H267.13V122.04H269.73C270.13 121.507 270.436 120.8 270.65 119.92C270.863 119.013 270.996 117.853 271.05 116.44L271.57 106.6H288.21V122.04ZM282.45 122.04V111.28H276.69L276.45 116.56C276.396 117.92 276.263 119.027 276.05 119.88C275.836 120.733 275.516 121.453 275.09 122.04H282.45ZM307.563 114.2V106.6H313.403V127H307.563V119.04H300.203V127H294.363V106.6H300.203V114.2H307.563ZM335.643 106.6V127H329.763V120.04H326.363L322.323 127H315.963L321.043 119.16C319.843 118.627 318.896 117.853 318.202 116.84C317.509 115.8 317.163 114.64 317.163 113.36C317.163 112.08 317.483 110.933 318.123 109.92C318.789 108.88 319.709 108.067 320.883 107.48C322.083 106.893 323.443 106.6 324.963 106.6H335.643ZM325.923 111.04C324.989 111.04 324.256 111.267 323.723 111.72C323.189 112.147 322.923 112.76 322.923 113.56C322.923 114.36 323.189 114.987 323.723 115.44C324.256 115.867 324.989 116.08 325.923 116.08H329.923V111.04H325.923Z" fill="#252219"/>
<path d="M708.24 127V109.16H702.68V103.88H706.84C707.427 103.88 707.853 103.747 708.12 103.48C708.413 103.187 708.56 102.747 708.56 102.16V99H714.28V127H708.24ZM723.435 127V109.16H717.875V103.88H722.035C722.622 103.88 723.049 103.747 723.315 103.48C723.609 103.187 723.755 102.747 723.755 102.16V99H729.475V127H723.435ZM738.631 127V109.16H733.071V103.88H737.231C737.817 103.88 738.244 103.747 738.511 103.48C738.804 103.187 738.951 102.747 738.951 102.16V99H744.671V127H738.631ZM770.215 116.12L778.855 127H771.895L764.375 117.24V127H758.535V106.6H764.375V115.56L771.375 106.6H777.855L770.215 116.12ZM785.772 127H780.332V106.6H787.532L793.132 120.56H793.332L798.892 106.6H805.852V127H800.372V114.28H800.172L795.052 127H791.132L785.972 114.28H785.772V127Z" fill="#252219"/>
<line x1="5" y1="124.004" x2="5" y2="6" stroke="#B3431D" stroke-width="10" stroke-linecap="round"/>
<line x1="293" y1="59" x2="293" y2="5" stroke="#B3431D" stroke-width="10" stroke-linecap="round"/>
<line x1="757" y1="64" x2="757" y2="10" stroke="#B3431D" stroke-width="10" stroke-linecap="round"/>
<line x1="1219" y1="62" x2="1219" y2="8" stroke="#B3431D" stroke-width="10" stroke-linecap="round"/>
<line x1="1515" y1="129" x2="1515" y2="11" stroke="#B3431D" stroke-width="10" stroke-linecap="round"/>
<path d="M1141.24 127V109.16H1135.68V103.88H1139.84C1140.43 103.88 1140.85 103.747 1141.12 103.48C1141.41 103.187 1141.56 102.747 1141.56 102.16V99H1147.28V127H1141.24ZM1156.44 127V109.16H1150.88V103.88H1155.04C1155.62 103.88 1156.05 103.747 1156.32 103.48C1156.61 103.187 1156.76 102.747 1156.76 102.16V99H1162.48V127H1156.44ZM1186.62 127H1180.74V111.56H1174.46V106.6H1192.9V111.56H1186.62V127ZM1204.02 127.48C1201.99 127.48 1200.18 127.027 1198.58 126.12C1197.01 125.213 1195.78 123.96 1194.9 122.36C1194.02 120.733 1193.58 118.88 1193.58 116.8C1193.58 114.747 1194.02 112.907 1194.9 111.28C1195.78 109.653 1197.01 108.387 1198.58 107.48C1200.18 106.573 1201.99 106.12 1204.02 106.12C1206.05 106.12 1207.86 106.573 1209.46 107.48C1211.06 108.387 1212.3 109.653 1213.18 111.28C1214.09 112.907 1214.54 114.747 1214.54 116.8C1214.54 118.88 1214.09 120.733 1213.18 122.36C1212.3 123.96 1211.06 125.213 1209.46 126.12C1207.89 127.027 1206.07 127.48 1204.02 127.48ZM1204.02 122.52C1205.43 122.52 1206.55 122.013 1207.38 121C1208.23 119.96 1208.66 118.56 1208.66 116.8C1208.66 115.04 1208.23 113.653 1207.38 112.64C1206.55 111.6 1205.43 111.08 1204.02 111.08C1202.61 111.08 1201.49 111.6 1200.66 112.64C1199.86 113.653 1199.46 115.04 1199.46 116.8C1199.46 118.56 1199.86 119.96 1200.66 121C1201.49 122.013 1202.61 122.52 1204.02 122.52ZM1229.55 106.6H1235.39V127H1229.55V120.04C1228.16 120.947 1226.55 121.4 1224.71 121.4C1222.36 121.4 1220.48 120.68 1219.07 119.24C1217.65 117.8 1216.95 115.827 1216.95 113.32V106.6H1222.79V112.8C1222.79 115.227 1223.92 116.44 1226.19 116.44C1227.49 116.44 1228.61 116.053 1229.55 115.28V106.6ZM1259.02 116.32C1259.02 116.907 1258.95 117.533 1258.82 118.2H1244.22C1244.43 119.613 1244.97 120.707 1245.82 121.48C1246.67 122.253 1247.79 122.64 1249.18 122.64C1250.11 122.64 1250.93 122.467 1251.62 122.12C1252.31 121.747 1252.87 121.227 1253.3 120.56L1258.38 121.24C1257.71 123.213 1256.57 124.747 1254.94 125.84C1253.34 126.933 1251.42 127.48 1249.18 127.48C1247.13 127.48 1245.3 127.027 1243.7 126.12C1242.1 125.213 1240.85 123.96 1239.94 122.36C1239.06 120.733 1238.62 118.88 1238.62 116.8C1238.62 114.747 1239.06 112.907 1239.94 111.28C1240.82 109.653 1242.05 108.387 1243.62 107.48C1245.19 106.573 1246.97 106.12 1248.94 106.12C1250.86 106.12 1252.58 106.547 1254.1 107.4C1255.65 108.253 1256.85 109.453 1257.7 111C1258.58 112.52 1259.02 114.293 1259.02 116.32ZM1248.94 110.68C1247.74 110.68 1246.74 111.027 1245.94 111.72C1245.14 112.387 1244.59 113.347 1244.3 114.6H1253.58C1253.31 113.373 1252.77 112.413 1251.94 111.72C1251.14 111.027 1250.14 110.68 1248.94 110.68ZM1273.96 116.12L1282.6 127H1275.64L1268.12 117.24V127H1262.28V106.6H1268.12V115.56L1275.12 106.6H1281.6L1273.96 116.12Z" fill="#252219"/>
<line y1="5" x2="1520" y2="5" stroke="#B3431D" stroke-width="10"/>
</g>
<defs>
<clipPath id="clip0_754_604">
<rect width="1520" height="170" fill="white"/>
</clipPath>
</defs>
</svg>
