<svg width="53" height="75" viewBox="0 0 53 75" fill="none" xmlns="http://www.w3.org/2000/svg">
<path d="M51.5 27.42C51.5 47.58 26.5 73.5 26.5 73.5C26.5 73.5 1.5 47.58 1.5 27.42C1.5 20.5456 4.13392 13.9527 8.82233 9.09179C13.5107 4.23085 19.8696 1.5 26.5 1.5C33.1304 1.5 39.4893 4.23085 44.1777 9.09179C48.8661 13.9527 51.5 20.5456 51.5 27.42Z" fill="#595959"/>
<path d="M26.5 36.06C31.1024 36.06 34.8333 32.1917 34.8333 27.42C34.8333 22.6483 31.1024 18.78 26.5 18.78C21.8976 18.78 18.1667 22.6483 18.1667 27.42C18.1667 32.1917 21.8976 36.06 26.5 36.06Z" fill="white"/>
<path d="M51.5 27.42C51.5 47.58 26.5 73.5 26.5 73.5C26.5 73.5 1.5 47.58 1.5 27.42C1.5 20.5456 4.13392 13.9527 8.82233 9.09179C13.5107 4.23085 19.8696 1.5 26.5 1.5C33.1304 1.5 39.4893 4.23085 44.1777 9.09179C48.8661 13.9527 51.5 20.5456 51.5 27.42Z" stroke="#595959" stroke-width="3" stroke-linecap="round" stroke-linejoin="round"/>
<path d="M26.5 36.06C31.1024 36.06 34.8333 32.1917 34.8333 27.42C34.8333 22.6483 31.1024 18.78 26.5 18.78C21.8976 18.78 18.1667 22.6483 18.1667 27.42C18.1667 32.1917 21.8976 36.06 26.5 36.06Z" stroke="#595959" stroke-width="3" stroke-linecap="round" stroke-linejoin="round"/>
</svg>
