<svg width="77" height="99" viewBox="0 0 77 99" fill="none" xmlns="http://www.w3.org/2000/svg">
<g filter="url(#filter0_d_819_647)">
<path d="M63.5 29.42C63.5 49.58 38.5 75.5 38.5 75.5C38.5 75.5 13.5 49.58 13.5 29.42C13.5 22.5456 16.1339 15.9527 20.8223 11.0918C25.5107 6.23085 31.8696 3.5 38.5 3.5C45.1304 3.5 51.4893 6.23085 56.1777 11.0918C60.8661 15.9527 63.5 22.5456 63.5 29.42Z" fill="#B3431D"/>
<path d="M38.5 38.06C43.1024 38.06 46.8333 34.1917 46.8333 29.42C46.8333 24.6483 43.1024 20.78 38.5 20.78C33.8976 20.78 30.1667 24.6483 30.1667 29.42C30.1667 34.1917 33.8976 38.06 38.5 38.06Z" fill="white"/>
<path d="M63.5 29.42C63.5 49.58 38.5 75.5 38.5 75.5C38.5 75.5 13.5 49.58 13.5 29.42C13.5 22.5456 16.1339 15.9527 20.8223 11.0918C25.5107 6.23085 31.8696 3.5 38.5 3.5C45.1304 3.5 51.4893 6.23085 56.1777 11.0918C60.8661 15.9527 63.5 22.5456 63.5 29.42Z" stroke="#B3431D" stroke-width="3" stroke-linecap="round" stroke-linejoin="round"/>
<path d="M38.5 38.06C43.1024 38.06 46.8333 34.1917 46.8333 29.42C46.8333 24.6483 43.1024 20.78 38.5 20.78C33.8976 20.78 30.1667 24.6483 30.1667 29.42C30.1667 34.1917 33.8976 38.06 38.5 38.06Z" stroke="#B3431D" stroke-width="3" stroke-linecap="round" stroke-linejoin="round"/>
</g>
<defs>
<filter id="filter0_d_819_647" x="0" y="0" width="77" height="99" filterUnits="userSpaceOnUse" color-interpolation-filters="sRGB">
<feFlood flood-opacity="0" result="BackgroundImageFix"/>
<feColorMatrix in="SourceAlpha" type="matrix" values="0 0 0 0 0 0 0 0 0 0 0 0 0 0 0 0 0 0 127 0" result="hardAlpha"/>
<feOffset dy="10"/>
<feGaussianBlur stdDeviation="6"/>
<feComposite in2="hardAlpha" operator="out"/>
<feColorMatrix type="matrix" values="0 0 0 0 0 0 0 0 0 0 0 0 0 0 0 0 0 0 0.25 0"/>
<feBlend mode="normal" in2="BackgroundImageFix" result="effect1_dropShadow_819_647"/>
<feBlend mode="normal" in="SourceGraphic" in2="effect1_dropShadow_819_647" result="shape"/>
</filter>
</defs>
</svg>
