<svg width="330" height="68" viewBox="0 0 330 68" fill="none" xmlns="http://www.w3.org/2000/svg">
<g clip-path="url(#clip0_779_612)">
<line x1="-1.75211e-07" y1="1" x2="330" y2="0.999971" stroke="#B3431D" stroke-width="4"/>
<line x1="45" y1="18" x2="45" y2="2" stroke="#B3431D" stroke-width="4" stroke-linecap="round"/>
<line x1="2" y1="36" x2="2" y2="2" stroke="#B3431D" stroke-width="4" stroke-linecap="round"/>
<line x1="165" y1="18" x2="165" y2="3" stroke="#B3431D" stroke-width="4" stroke-linecap="round"/>
<path d="M289 18V2" stroke="#B3431D" stroke-width="4" stroke-linecap="round"/>
<line x1="328" y1="36" x2="328" y2="2" stroke="#B3431D" stroke-width="4" stroke-linecap="round"/>
<path d="M106.45 59H105.33V49.2H112.68V59H111.56V50.25H106.45V59ZM118.628 52C119.253 52 119.836 52.1587 120.378 52.476C120.919 52.784 121.348 53.2133 121.666 53.764C121.983 54.3053 122.142 54.9073 122.142 55.57C122.142 56.2327 121.983 56.8393 121.666 57.39C121.348 57.9313 120.919 58.3607 120.378 58.678C119.836 58.986 119.253 59.14 118.628 59.14C118.114 59.14 117.638 59.0327 117.2 58.818C116.761 58.6033 116.397 58.314 116.108 57.95V61.8H115.058V52.14H116.108V53.19C116.397 52.826 116.761 52.5367 117.2 52.322C117.638 52.1073 118.114 52 118.628 52ZM118.558 58.16C119.015 58.16 119.43 58.048 119.804 57.824C120.186 57.5907 120.49 57.278 120.714 56.886C120.938 56.494 121.05 56.0553 121.05 55.57C121.05 55.0847 120.938 54.646 120.714 54.254C120.49 53.862 120.186 53.554 119.804 53.33C119.43 53.0967 119.015 52.98 118.558 52.98C118.1 52.98 117.676 53.0967 117.284 53.33C116.901 53.554 116.598 53.862 116.374 54.254C116.15 54.646 116.038 55.0847 116.038 55.57C116.038 56.0553 116.15 56.494 116.374 56.886C116.598 57.278 116.901 57.5907 117.284 57.824C117.676 58.048 118.1 58.16 118.558 58.16ZM126.847 59.14C126.194 59.14 125.592 58.986 125.041 58.678C124.5 58.3607 124.066 57.9313 123.739 57.39C123.422 56.8393 123.263 56.2327 123.263 55.57C123.263 54.9073 123.422 54.3053 123.739 53.764C124.066 53.2133 124.5 52.784 125.041 52.476C125.592 52.1587 126.194 52 126.847 52C127.5 52 128.098 52.1587 128.639 52.476C129.19 52.784 129.624 53.2133 129.941 53.764C130.268 54.3053 130.431 54.9073 130.431 55.57C130.431 56.2327 130.268 56.8393 129.941 57.39C129.624 57.9313 129.19 58.3607 128.639 58.678C128.098 58.986 127.5 59.14 126.847 59.14ZM126.847 58.16C127.304 58.16 127.72 58.048 128.093 57.824C128.476 57.5907 128.779 57.278 129.003 56.886C129.227 56.494 129.339 56.0553 129.339 55.57C129.339 55.0847 129.227 54.646 129.003 54.254C128.779 53.862 128.476 53.554 128.093 53.33C127.72 53.0967 127.304 52.98 126.847 52.98C126.39 52.98 125.97 53.0967 125.587 53.33C125.214 53.554 124.915 53.862 124.691 54.254C124.467 54.646 124.355 55.0847 124.355 55.57C124.355 56.0553 124.467 56.494 124.691 56.886C124.915 57.278 125.214 57.5907 125.587 57.824C125.97 58.048 126.39 58.16 126.847 58.16ZM137.295 58.02H138.345V60.96H137.295V59H131.975V60.96H130.925V58.02C131.289 58.02 131.597 57.8707 131.849 57.572C132.11 57.2733 132.26 56.8627 132.297 56.34L132.647 52.14H137.295V58.02ZM136.245 58.02V53.12H133.613L133.333 56.34C133.296 56.7507 133.226 57.0913 133.123 57.362C133.02 57.6233 132.88 57.8427 132.703 58.02H136.245ZM142.775 59.14C142.122 59.14 141.52 58.986 140.969 58.678C140.428 58.3607 139.994 57.9313 139.667 57.39C139.35 56.8393 139.191 56.2327 139.191 55.57C139.191 54.9073 139.35 54.3053 139.667 53.764C139.994 53.2133 140.428 52.784 140.969 52.476C141.52 52.1587 142.122 52 142.775 52C143.428 52 144.026 52.1587 144.567 52.476C145.118 52.784 145.552 53.2133 145.869 53.764C146.196 54.3053 146.359 54.9073 146.359 55.57C146.359 56.2327 146.196 56.8393 145.869 57.39C145.552 57.9313 145.118 58.3607 144.567 58.678C144.026 58.986 143.428 59.14 142.775 59.14ZM142.775 58.16C143.232 58.16 143.648 58.048 144.021 57.824C144.404 57.5907 144.707 57.278 144.931 56.886C145.155 56.494 145.267 56.0553 145.267 55.57C145.267 55.0847 145.155 54.646 144.931 54.254C144.707 53.862 144.404 53.554 144.021 53.33C143.648 53.0967 143.232 52.98 142.775 52.98C142.318 52.98 141.898 53.0967 141.515 53.33C141.142 53.554 140.843 53.862 140.619 54.254C140.395 54.646 140.283 55.0847 140.283 55.57C140.283 56.0553 140.395 56.494 140.619 56.886C140.843 57.278 141.142 57.5907 141.515 57.824C141.898 58.048 142.318 58.16 142.775 58.16ZM148.715 52.14H153.335V59H152.285V53.12H149.695L149.429 56.62C149.298 58.2533 148.547 59.07 147.175 59.07H146.923V58.048H147.175C147.567 58.048 147.856 57.922 148.043 57.67C148.229 57.418 148.346 56.9933 148.393 56.396L148.715 52.14ZM160.625 55.486L163.677 59H162.375L159.575 55.766V59H158.553V55.766L155.753 59H154.451L157.503 55.486L154.689 52.14H155.921L158.553 55.318V52.14H159.575V55.318L162.207 52.14H163.439L160.625 55.486ZM165.846 57.306L169.976 52.14H170.816V59H169.766V53.834L165.636 59H164.796V52.14H165.846V57.306ZM175.437 59H174.387V53.12H172.007V52.14H177.817V53.12H175.437V59ZM181.818 52C182.444 52 183.013 52.1447 183.526 52.434C184.049 52.714 184.46 53.1153 184.758 53.638C185.057 54.1513 185.206 54.7393 185.206 55.402C185.206 55.626 185.197 55.7987 185.178 55.92H179.48C179.546 56.6013 179.784 57.1473 180.194 57.558C180.614 57.9593 181.156 58.16 181.818 58.16C182.789 58.16 183.489 57.7633 183.918 56.97H185.038C184.758 57.67 184.343 58.2067 183.792 58.58C183.242 58.9533 182.584 59.14 181.818 59.14C181.174 59.14 180.586 58.986 180.054 58.678C179.532 58.3607 179.121 57.9313 178.822 57.39C178.524 56.8487 178.374 56.242 178.374 55.57C178.374 54.898 178.524 54.2913 178.822 53.75C179.121 53.2087 179.532 52.784 180.054 52.476C180.586 52.1587 181.174 52 181.818 52ZM181.818 52.98C181.202 52.98 180.689 53.1573 180.278 53.512C179.877 53.8667 179.625 54.352 179.522 54.968H184.1C184.035 54.3707 183.788 53.89 183.358 53.526C182.938 53.162 182.425 52.98 181.818 52.98ZM187.502 52.14H192.122V59H191.072V53.12H188.482L188.216 56.62C188.085 58.2533 187.334 59.07 185.962 59.07H185.71V58.048H185.962C186.354 58.048 186.643 57.922 186.83 57.67C187.016 57.418 187.133 56.9933 187.18 56.396L187.502 52.14ZM196.92 54.52C197.732 54.52 198.376 54.7253 198.852 55.136C199.328 55.5467 199.566 56.088 199.566 56.76C199.566 57.432 199.328 57.9733 198.852 58.384C198.376 58.7947 197.732 59 196.92 59H194.218V52.14H195.268V54.52H196.92ZM196.92 58.02C197.424 58.02 197.807 57.9173 198.068 57.712C198.339 57.4973 198.474 57.18 198.474 56.76C198.474 56.34 198.339 56.0273 198.068 55.822C197.807 55.6073 197.424 55.5 196.92 55.5H195.268V58.02H196.92ZM205.94 55.01V52.14H206.99V59H205.94V55.99H202.09V59H201.04V52.14H202.09V55.01H205.94ZM212.187 59.14C211.534 59.14 210.932 58.986 210.381 58.678C209.84 58.3607 209.406 57.9313 209.079 57.39C208.762 56.8393 208.603 56.2327 208.603 55.57C208.603 54.9073 208.762 54.3053 209.079 53.764C209.406 53.2133 209.84 52.784 210.381 52.476C210.932 52.1587 211.534 52 212.187 52C212.84 52 213.438 52.1587 213.979 52.476C214.53 52.784 214.964 53.2133 215.281 53.764C215.608 54.3053 215.771 54.9073 215.771 55.57C215.771 56.2327 215.608 56.8393 215.281 57.39C214.964 57.9313 214.53 58.3607 213.979 58.678C213.438 58.986 212.84 59.14 212.187 59.14ZM212.187 58.16C212.644 58.16 213.06 58.048 213.433 57.824C213.816 57.5907 214.119 57.278 214.343 56.886C214.567 56.494 214.679 56.0553 214.679 55.57C214.679 55.0847 214.567 54.646 214.343 54.254C214.119 53.862 213.816 53.554 213.433 53.33C213.06 53.0967 212.644 52.98 212.187 52.98C211.73 52.98 211.31 53.0967 210.927 53.33C210.554 53.554 210.255 53.862 210.031 54.254C209.807 54.646 209.695 55.0847 209.695 55.57C209.695 56.0553 209.807 56.494 210.031 56.886C210.255 57.278 210.554 57.5907 210.927 57.824C211.31 58.048 211.73 58.16 212.187 58.16ZM220.402 59.14C219.767 59.14 219.179 58.986 218.638 58.678C218.106 58.3607 217.681 57.9313 217.364 57.39C217.047 56.8393 216.888 56.2327 216.888 55.57C216.888 54.9073 217.047 54.3053 217.364 53.764C217.681 53.2133 218.106 52.784 218.638 52.476C219.179 52.1587 219.767 52 220.402 52C221.149 52 221.821 52.2053 222.418 52.616C223.025 53.0267 223.449 53.5913 223.692 54.31H222.572C222.367 53.89 222.068 53.5633 221.676 53.33C221.284 53.0967 220.859 52.98 220.402 52.98C219.963 52.98 219.557 53.0967 219.184 53.33C218.811 53.554 218.517 53.862 218.302 54.254C218.087 54.646 217.98 55.0847 217.98 55.57C217.98 56.0553 218.087 56.494 218.302 56.886C218.517 57.278 218.811 57.5907 219.184 57.824C219.557 58.048 219.963 58.16 220.402 58.16C220.859 58.16 221.284 58.0433 221.676 57.81C222.068 57.5767 222.367 57.25 222.572 56.83H223.692C223.449 57.5487 223.025 58.1133 222.418 58.524C221.821 58.9347 221.149 59.14 220.402 59.14ZM227.541 59H226.491V53.12H224.111V52.14H229.921V53.12H227.541V59ZM233.807 54.52C234.619 54.52 235.263 54.7253 235.739 55.136C236.215 55.5467 236.453 56.088 236.453 56.76C236.453 57.432 236.215 57.9733 235.739 58.384C235.263 58.7947 234.619 59 233.807 59H231.105V52.14H232.155V54.52H233.807ZM233.807 58.02C234.311 58.02 234.693 57.9173 234.955 57.712C235.225 57.4973 235.361 57.18 235.361 56.76C235.361 56.34 235.225 56.0273 234.955 55.822C234.693 55.6073 234.311 55.5 233.807 55.5H232.155V58.02H233.807Z" fill="#504D4D"/>
<path d="M150.848 31.466C151.592 31.73 152.162 32.132 152.558 32.672C152.954 33.212 153.152 33.854 153.152 34.598C153.152 35.33 152.96 35.972 152.576 36.524C152.192 37.064 151.64 37.484 150.92 37.784C150.212 38.072 149.39 38.216 148.454 38.216C147.05 38.216 145.898 37.886 144.998 37.226C144.11 36.566 143.528 35.606 143.252 34.346L145.862 34.022C146.222 35.198 147.044 35.786 148.328 35.786C148.964 35.786 149.462 35.648 149.822 35.372C150.182 35.096 150.362 34.718 150.362 34.238C150.362 33.782 150.182 33.416 149.822 33.14C149.474 32.852 149 32.708 148.4 32.708H146.888V30.458H148.346C148.874 30.458 149.294 30.332 149.606 30.08C149.93 29.816 150.092 29.462 150.092 29.018C150.092 28.574 149.93 28.22 149.606 27.956C149.282 27.692 148.85 27.56 148.31 27.56C147.734 27.56 147.248 27.698 146.852 27.974C146.468 28.25 146.192 28.652 146.024 29.18L143.522 28.874C143.798 27.71 144.362 26.804 145.214 26.156C146.078 25.508 147.146 25.184 148.418 25.184C149.258 25.184 150.008 25.328 150.668 25.616C151.34 25.904 151.862 26.306 152.234 26.822C152.618 27.338 152.81 27.932 152.81 28.604C152.81 29.24 152.636 29.81 152.288 30.314C151.952 30.806 151.472 31.19 150.848 31.466ZM167.394 35.768H168.978V40.52H166.692V38H160.194V40.52H157.908V35.768H159.078C159.258 35.528 159.396 35.21 159.492 34.814C159.588 34.406 159.648 33.884 159.672 33.248L159.906 28.82H167.394V35.768ZM164.802 35.768V30.926H162.21L162.102 33.302C162.078 33.914 162.018 34.412 161.922 34.796C161.826 35.18 161.682 35.504 161.49 35.768H164.802ZM176.103 32.24V28.82H178.731V38H176.103V34.418H172.791V38H170.163V28.82H172.791V32.24H176.103ZM188.739 28.82V38H186.093V34.868H184.563L182.745 38H179.883L182.169 34.472C181.629 34.232 181.203 33.884 180.891 33.428C180.579 32.96 180.423 32.438 180.423 31.862C180.423 31.286 180.567 30.77 180.855 30.314C181.155 29.846 181.569 29.48 182.097 29.216C182.637 28.952 183.249 28.82 183.933 28.82H188.739ZM184.365 30.818C183.945 30.818 183.615 30.92 183.375 31.124C183.135 31.316 183.015 31.592 183.015 31.952C183.015 32.312 183.135 32.594 183.375 32.798C183.615 32.99 183.945 33.086 184.365 33.086H186.165V30.818H184.365Z" fill="#252219"/>
<path d="M261.506 49.2H267.386V59H266.266V50.25H262.556L262.164 55.71C262.08 56.942 261.819 57.81 261.38 58.314C260.941 58.818 260.33 59.07 259.546 59.07H259.21V57.978H259.448C259.971 57.978 260.353 57.8053 260.596 57.46C260.839 57.1147 260.988 56.5313 261.044 55.71L261.506 49.2ZM272.865 59.14C272.211 59.14 271.609 58.986 271.059 58.678C270.517 58.3607 270.083 57.9313 269.757 57.39C269.439 56.8393 269.281 56.2327 269.281 55.57C269.281 54.9073 269.439 54.3053 269.757 53.764C270.083 53.2133 270.517 52.784 271.059 52.476C271.609 52.1587 272.211 52 272.865 52C273.518 52 274.115 52.1587 274.657 52.476C275.207 52.784 275.641 53.2133 275.959 53.764C276.285 54.3053 276.449 54.9073 276.449 55.57C276.449 56.2327 276.285 56.8393 275.959 57.39C275.641 57.9313 275.207 58.3607 274.657 58.678C274.115 58.986 273.518 59.14 272.865 59.14ZM272.865 58.16C273.322 58.16 273.737 58.048 274.111 57.824C274.493 57.5907 274.797 57.278 275.021 56.886C275.245 56.494 275.357 56.0553 275.357 55.57C275.357 55.0847 275.245 54.646 275.021 54.254C274.797 53.862 274.493 53.554 274.111 53.33C273.737 53.0967 273.322 52.98 272.865 52.98C272.407 52.98 271.987 53.0967 271.605 53.33C271.231 53.554 270.933 53.862 270.709 54.254C270.485 54.646 270.373 55.0847 270.373 55.57C270.373 56.0553 270.485 56.494 270.709 56.886C270.933 57.278 271.231 57.5907 271.605 57.824C271.987 58.048 272.407 58.16 272.865 58.16ZM280.226 55.514L283.712 59H282.284L279.106 55.78V59H278.056V52.14H279.106V55.318L282.13 52.14H283.474L280.226 55.514ZM290.026 52.14H291.076V59H290.026V57.95C289.736 58.314 289.372 58.6033 288.934 58.818C288.495 59.0327 288.019 59.14 287.506 59.14C286.88 59.14 286.297 58.986 285.756 58.678C285.214 58.3607 284.785 57.9313 284.468 57.39C284.15 56.8393 283.992 56.2327 283.992 55.57C283.992 54.9073 284.15 54.3053 284.468 53.764C284.785 53.2133 285.214 52.784 285.756 52.476C286.297 52.1587 286.88 52 287.506 52C288.019 52 288.495 52.1073 288.934 52.322C289.372 52.5367 289.736 52.826 290.026 53.19V52.14ZM287.59 58.16C288.047 58.16 288.467 58.048 288.85 57.824C289.232 57.5907 289.536 57.278 289.76 56.886C289.984 56.494 290.096 56.0553 290.096 55.57C290.096 55.0847 289.984 54.646 289.76 54.254C289.536 53.862 289.232 53.554 288.85 53.33C288.467 53.0967 288.047 52.98 287.59 52.98C287.132 52.98 286.712 53.0967 286.33 53.33C285.947 53.554 285.644 53.862 285.42 54.254C285.196 54.646 285.084 55.0847 285.084 55.57C285.084 56.0553 285.196 56.494 285.42 56.886C285.644 57.278 285.947 57.5907 286.33 57.824C286.712 58.048 287.132 58.16 287.59 58.16ZM299.967 60.96H298.917V59H293.177V52.14H294.227V58.02H297.867V52.14H298.917V58.02H299.967V60.96ZM302.348 57.306L306.478 52.14H307.318V59H306.268V53.834L302.138 59H301.298V52.14H302.348V57.306ZM310.469 57.306L314.599 52.14H315.439V59H314.389V53.834L310.259 59H309.419V52.14H310.469V57.306Z" fill="#504D4D"/>
<path d="M22.808 38V29.972H20.306V27.596H22.178C22.442 27.596 22.634 27.536 22.754 27.416C22.886 27.284 22.952 27.086 22.952 26.822V25.4H25.526V38H22.808ZM29.6459 38V29.972H27.1439V27.596H29.0159C29.2799 27.596 29.4719 27.536 29.5919 27.416C29.7239 27.284 29.7899 27.086 29.7899 26.822V25.4H32.3639V38H29.6459ZM36.4838 38V29.972H33.9818V27.596H35.8538C36.1178 27.596 36.3098 27.536 36.4298 27.416C36.5618 27.284 36.6278 27.086 36.6278 26.822V25.4H39.2018V38H36.4838ZM50.6968 33.104L54.5848 38H51.4528L48.0688 33.608V38H45.4408V28.82H48.0688V32.852L51.2188 28.82H54.1348L50.6968 33.104ZM57.6973 38H55.2493V28.82H58.4893L61.0093 35.102H61.0993L63.6013 28.82H66.7333V38H64.2673V32.276H64.1773L61.8733 38H60.1093L57.7873 32.276H57.6973V38Z" fill="#252219"/>
<path d="M256.808 38V29.972H254.306V27.596H256.178C256.442 27.596 256.634 27.536 256.754 27.416C256.886 27.284 256.952 27.086 256.952 26.822V25.4H259.526V38H256.808ZM263.646 38V29.972H261.144V27.596H263.016C263.28 27.596 263.472 27.536 263.592 27.416C263.724 27.284 263.79 27.086 263.79 26.822V25.4H266.364V38H263.646ZM277.229 38H274.583V31.052H271.757V28.82H280.055V31.052H277.229V38ZM285.059 38.216C284.147 38.216 283.331 38.012 282.611 37.604C281.903 37.196 281.351 36.632 280.955 35.912C280.559 35.18 280.361 34.346 280.361 33.41C280.361 32.486 280.559 31.658 280.955 30.926C281.351 30.194 281.903 29.624 282.611 29.216C283.331 28.808 284.147 28.604 285.059 28.604C285.971 28.604 286.787 28.808 287.507 29.216C288.227 29.624 288.785 30.194 289.181 30.926C289.589 31.658 289.793 32.486 289.793 33.41C289.793 34.346 289.589 35.18 289.181 35.912C288.785 36.632 288.227 37.196 287.507 37.604C286.799 38.012 285.983 38.216 285.059 38.216ZM285.059 35.984C285.695 35.984 286.199 35.756 286.571 35.3C286.955 34.832 287.147 34.202 287.147 33.41C287.147 32.618 286.955 31.994 286.571 31.538C286.199 31.07 285.695 30.836 285.059 30.836C284.423 30.836 283.919 31.07 283.547 31.538C283.187 31.994 283.007 32.618 283.007 33.41C283.007 34.202 283.187 34.832 283.547 35.3C283.919 35.756 284.423 35.984 285.059 35.984ZM296.546 28.82H299.174V38H296.546V34.868C295.922 35.276 295.196 35.48 294.368 35.48C293.312 35.48 292.466 35.156 291.83 34.508C291.194 33.86 290.876 32.972 290.876 31.844V28.82H293.504V31.61C293.504 32.702 294.014 33.248 295.034 33.248C295.622 33.248 296.126 33.074 296.546 32.726V28.82ZM309.809 33.194C309.809 33.458 309.779 33.74 309.719 34.04H303.149C303.245 34.676 303.485 35.168 303.869 35.516C304.253 35.864 304.757 36.038 305.381 36.038C305.801 36.038 306.167 35.96 306.479 35.804C306.791 35.636 307.043 35.402 307.235 35.102L309.521 35.408C309.221 36.296 308.705 36.986 307.973 37.478C307.253 37.97 306.389 38.216 305.381 38.216C304.457 38.216 303.635 38.012 302.915 37.604C302.195 37.196 301.631 36.632 301.223 35.912C300.827 35.18 300.629 34.346 300.629 33.41C300.629 32.486 300.827 31.658 301.223 30.926C301.619 30.194 302.171 29.624 302.879 29.216C303.587 28.808 304.385 28.604 305.273 28.604C306.137 28.604 306.911 28.796 307.595 29.18C308.291 29.564 308.831 30.104 309.215 30.8C309.611 31.484 309.809 32.282 309.809 33.194ZM305.273 30.656C304.733 30.656 304.283 30.812 303.923 31.124C303.563 31.424 303.317 31.856 303.185 32.42H307.361C307.241 31.868 306.995 31.436 306.623 31.124C306.263 30.812 305.813 30.656 305.273 30.656ZM316.531 33.104L320.419 38H317.287L313.903 33.608V38H311.275V28.82H313.903V32.852L317.053 28.82H319.969L316.531 33.104Z" fill="#252219"/>
<path d="M9.2 49.2C9.82533 49.2 10.376 49.3213 10.852 49.564C11.3373 49.8067 11.7107 50.1427 11.972 50.572C12.2427 50.992 12.378 51.468 12.378 52C12.378 52.532 12.2427 53.0127 11.972 53.442C11.7107 53.862 11.3373 54.1933 10.852 54.436C10.376 54.6787 9.82533 54.8 9.2 54.8H7.45V59H6.33V49.2H9.2ZM9.2 53.75C9.816 53.75 10.306 53.5913 10.67 53.274C11.034 52.9567 11.216 52.532 11.216 52C11.216 51.468 11.034 51.0433 10.67 50.726C10.306 50.4087 9.816 50.25 9.2 50.25H7.45V53.75H9.2ZM19.1819 52.14H20.2319V59H19.1819V57.95C18.8926 58.314 18.5286 58.6033 18.0899 58.818C17.6512 59.0327 17.1752 59.14 16.6619 59.14C16.0366 59.14 15.4532 58.986 14.9119 58.678C14.3706 58.3607 13.9412 57.9313 13.6239 57.39C13.3066 56.8393 13.1479 56.2327 13.1479 55.57C13.1479 54.9073 13.3066 54.3053 13.6239 53.764C13.9412 53.2133 14.3706 52.784 14.9119 52.476C15.4532 52.1587 16.0366 52 16.6619 52C17.1752 52 17.6512 52.1073 18.0899 52.322C18.5286 52.5367 18.8926 52.826 19.1819 53.19V52.14ZM16.7459 58.16C17.2032 58.16 17.6232 58.048 18.0059 57.824C18.3886 57.5907 18.6919 57.278 18.9159 56.886C19.1399 56.494 19.2519 56.0553 19.2519 55.57C19.2519 55.0847 19.1399 54.646 18.9159 54.254C18.6919 53.862 18.3886 53.554 18.0059 53.33C17.6232 53.0967 17.2032 52.98 16.7459 52.98C16.2886 52.98 15.8686 53.0967 15.4859 53.33C15.1032 53.554 14.7999 53.862 14.5759 54.254C14.3519 54.646 14.2399 55.0847 14.2399 55.57C14.2399 56.0553 14.3519 56.494 14.5759 56.886C14.7999 57.278 15.1032 57.5907 15.4859 57.824C15.8686 58.048 16.2886 58.16 16.7459 58.16ZM25.3572 59.14C24.7225 59.14 24.1345 58.986 23.5932 58.678C23.0612 58.3607 22.6365 57.9313 22.3192 57.39C22.0019 56.8393 21.8432 56.2327 21.8432 55.57C21.8432 54.9073 22.0019 54.3053 22.3192 53.764C22.6365 53.2133 23.0612 52.784 23.5932 52.476C24.1345 52.1587 24.7225 52 25.3572 52C26.1039 52 26.7759 52.2053 27.3732 52.616C27.9799 53.0267 28.4045 53.5913 28.6472 54.31H27.5272C27.3219 53.89 27.0232 53.5633 26.6312 53.33C26.2392 53.0967 25.8145 52.98 25.3572 52.98C24.9185 52.98 24.5125 53.0967 24.1392 53.33C23.7659 53.554 23.4719 53.862 23.2572 54.254C23.0425 54.646 22.9352 55.0847 22.9352 55.57C22.9352 56.0553 23.0425 56.494 23.2572 56.886C23.4719 57.278 23.7659 57.5907 24.1392 57.824C24.5125 58.048 24.9185 58.16 25.3572 58.16C25.8145 58.16 26.2392 58.0433 26.6312 57.81C27.0232 57.5767 27.3219 57.25 27.5272 56.83H28.6472C28.4045 57.5487 27.9799 58.1133 27.3732 58.524C26.7759 58.9347 26.1039 59.14 25.3572 59.14ZM33.1365 59.14C32.5018 59.14 31.9138 58.986 31.3725 58.678C30.8405 58.3607 30.4158 57.9313 30.0985 57.39C29.7812 56.8393 29.6225 56.2327 29.6225 55.57C29.6225 54.9073 29.7812 54.3053 30.0985 53.764C30.4158 53.2133 30.8405 52.784 31.3725 52.476C31.9138 52.1587 32.5018 52 33.1365 52C33.8832 52 34.5552 52.2053 35.1525 52.616C35.7592 53.0267 36.1838 53.5913 36.4265 54.31H35.3065C35.1012 53.89 34.8025 53.5633 34.4105 53.33C34.0185 53.0967 33.5938 52.98 33.1365 52.98C32.6978 52.98 32.2918 53.0967 31.9185 53.33C31.5452 53.554 31.2512 53.862 31.0365 54.254C30.8218 54.646 30.7145 55.0847 30.7145 55.57C30.7145 56.0553 30.8218 56.494 31.0365 56.886C31.2512 57.278 31.5452 57.5907 31.9185 57.824C32.2918 58.048 32.6978 58.16 33.1365 58.16C33.5938 58.16 34.0185 58.0433 34.4105 57.81C34.8025 57.5767 35.1012 57.25 35.3065 56.83H36.4265C36.1838 57.5487 35.7592 58.1133 35.1525 58.524C34.5552 58.9347 33.8832 59.14 33.1365 59.14ZM40.2751 59H39.2251V53.12H36.8451V52.14H42.6551V53.12H40.2751V59ZM46.7963 59.14C46.143 59.14 45.541 58.986 44.9903 58.678C44.449 58.3607 44.015 57.9313 43.6883 57.39C43.371 56.8393 43.2123 56.2327 43.2123 55.57C43.2123 54.9073 43.371 54.3053 43.6883 53.764C44.015 53.2133 44.449 52.784 44.9903 52.476C45.541 52.1587 46.143 52 46.7963 52C47.4497 52 48.047 52.1587 48.5883 52.476C49.139 52.784 49.573 53.2133 49.8903 53.764C50.217 54.3053 50.3803 54.9073 50.3803 55.57C50.3803 56.2327 50.217 56.8393 49.8903 57.39C49.573 57.9313 49.139 58.3607 48.5883 58.678C48.047 58.986 47.4497 59.14 46.7963 59.14ZM46.7963 58.16C47.2537 58.16 47.669 58.048 48.0423 57.824C48.425 57.5907 48.7283 57.278 48.9523 56.886C49.1763 56.494 49.2883 56.0553 49.2883 55.57C49.2883 55.0847 49.1763 54.646 48.9523 54.254C48.7283 53.862 48.425 53.554 48.0423 53.33C47.669 53.0967 47.2537 52.98 46.7963 52.98C46.339 52.98 45.919 53.0967 45.5363 53.33C45.163 53.554 44.8643 53.862 44.6403 54.254C44.4163 54.646 44.3043 55.0847 44.3043 55.57C44.3043 56.0553 44.4163 56.494 44.6403 56.886C44.8643 57.278 45.163 57.5907 45.5363 57.824C45.919 58.048 46.339 58.16 46.7963 58.16ZM57.0975 52.126V59H56.0475V56.438H54.8015L52.6875 59H51.4275L53.5975 56.396C53.0468 56.2933 52.5988 56.0507 52.2535 55.668C51.9175 55.2853 51.7495 54.8233 51.7495 54.282C51.7495 53.8713 51.8475 53.5027 52.0435 53.176C52.2488 52.8493 52.5288 52.5927 52.8835 52.406C53.2475 52.2193 53.6488 52.126 54.0875 52.126H57.0975ZM56.0475 55.458V53.106H54.1575C53.7655 53.106 53.4482 53.2133 53.2055 53.428C52.9628 53.6333 52.8415 53.918 52.8415 54.282C52.8415 54.646 52.9628 54.9353 53.2055 55.15C53.4482 55.3553 53.7655 55.458 54.1575 55.458H56.0475ZM64.0926 55.01V52.14H65.1426V59H64.0926V55.99H60.2426V59H59.1926V52.14H60.2426V55.01H64.0926ZM68.2953 57.306L72.4253 52.14H73.2653V59H72.2153V53.834L68.0853 59H67.2453V52.14H68.2953V57.306ZM78.3204 52C78.9457 52 79.5151 52.1447 80.0284 52.434C80.5511 52.714 80.9617 53.1153 81.2604 53.638C81.5591 54.1513 81.7084 54.7393 81.7084 55.402C81.7084 55.626 81.6991 55.7987 81.6804 55.92H75.9824C76.0477 56.6013 76.2857 57.1473 76.6964 57.558C77.1164 57.9593 77.6577 58.16 78.3204 58.16C79.2911 58.16 79.9911 57.7633 80.4204 56.97H81.5404C81.2604 57.67 80.8451 58.2067 80.2944 58.58C79.7437 58.9533 79.0857 59.14 78.3204 59.14C77.6764 59.14 77.0884 58.986 76.5564 58.678C76.0337 58.3607 75.6231 57.9313 75.3244 57.39C75.0257 56.8487 74.8764 56.242 74.8764 55.57C74.8764 54.898 75.0257 54.2913 75.3244 53.75C75.6231 53.2087 76.0337 52.784 76.5564 52.476C77.0884 52.1587 77.6764 52 78.3204 52ZM78.3204 52.98C77.7044 52.98 77.1911 53.1573 76.7804 53.512C76.3791 53.8667 76.1271 54.352 76.0244 54.968H80.6024C80.5371 54.3707 80.2897 53.89 79.8604 53.526C79.4404 53.162 78.9271 52.98 78.3204 52.98Z" fill="#504D4D"/>
</g>
<defs>
<clipPath id="clip0_779_612">
<rect width="330" height="68" fill="white"/>
</clipPath>
</defs>
</svg>
